<svg width="13" height="13" viewBox="0 0 13 13" fill="none" xmlns="http://www.w3.org/2000/svg">
<path d="M11.9997 9.23561V10.8916C12.0003 11.0453 11.9687 11.1974 11.907 11.3383C11.8453 11.4792 11.7548 11.6056 11.6413 11.7095C11.5278 11.8134 11.3938 11.8926 11.2479 11.9418C11.102 11.9911 10.9474 12.0094 10.794 11.9955C9.09204 11.811 7.45724 11.2306 6.0209 10.3009C4.68457 9.45346 3.55159 8.32273 2.70244 6.98905C1.76772 5.54904 1.18603 3.90954 1.00449 2.20337C0.990668 2.05073 1.00884 1.89689 1.05786 1.75164C1.10688 1.6064 1.18566 1.47293 1.28919 1.35974C1.39273 1.24654 1.51874 1.1561 1.65922 1.09418C1.79969 1.03225 1.95155 1.0002 2.10511 1.00005H3.76434C4.03276 0.997417 4.29297 1.09228 4.49649 1.26695C4.7 1.44163 4.83293 1.6842 4.8705 1.94946C4.94053 2.4794 5.07041 2.99973 5.25765 3.50053C5.33206 3.6981 5.34817 3.91281 5.30406 4.11923C5.25995 4.32566 5.15747 4.51513 5.00877 4.66521L4.30636 5.36622C5.09369 6.74813 6.24017 7.89234 7.62482 8.67811L8.32723 7.9771C8.4776 7.82869 8.66746 7.72641 8.87429 7.68239C9.08112 7.63837 9.29626 7.65444 9.49422 7.7287C9.99601 7.91558 10.5174 8.0452 11.0484 8.11509C11.317 8.15292 11.5624 8.28798 11.7378 8.49458C11.9132 8.70118 12.0064 8.96491 11.9997 9.23561Z" stroke="#9C9C9C" stroke-linecap="round" stroke-linejoin="round"/>
</svg>
